<svg width="48" height="48" viewBox="0 0 48 48" fill="none" xmlns="http://www.w3.org/2000/svg">
<g id="Group 6">
<circle id="Ellipse 9" cx="24" cy="24" r="23.5" stroke="#242721"/>
<path id="Vector" d="M32 22V19C32 18.4696 31.7893 17.9609 31.4142 17.5858C31.0391 17.2107 30.5304 17 30 17H18C17.4696 17 16.9609 17.2107 16.5858 17.5858C16.2107 17.9609 16 18.4696 16 19V22C15.4696 22 14.9609 22.2107 14.5858 22.5858C14.2107 22.9609 14 23.4696 14 24V29H15.33L16 31H17L17.67 29H30.33L31 31H32L32.67 29H34V24C34 23.4696 33.7893 22.9609 33.4142 22.5858C33.0391 22.2107 32.5304 22 32 22ZM25 19H30V22H25M18 19H23V22H18M32 27H16V24H32V27Z" fill="#242721"/>
</g>
</svg>
