<svg width="13" height="13" viewBox="0 0 13 13" fill="none" xmlns="http://www.w3.org/2000/svg">
<path id="Vector" d="M1.44444 5.0555L2.52778 1.8055H10.4722L11.5556 5.0555M10.4722 8.66661C10.1849 8.66661 9.90935 8.55248 9.70619 8.34931C9.50303 8.14615 9.38889 7.8706 9.38889 7.58328C9.38889 7.29596 9.50303 7.02041 9.70619 6.81725C9.90935 6.61408 10.1849 6.49995 10.4722 6.49995C10.7595 6.49995 11.0351 6.61408 11.2383 6.81725C11.4414 7.02041 11.5556 7.29596 11.5556 7.58328C11.5556 7.8706 11.4414 8.14615 11.2383 8.34931C11.0351 8.55248 10.7595 8.66661 10.4722 8.66661ZM2.52778 8.66661C2.24046 8.66661 1.96491 8.55248 1.76175 8.34931C1.55858 8.14615 1.44444 7.8706 1.44444 7.58328C1.44444 7.29596 1.55858 7.02041 1.76175 6.81725C1.96491 6.61408 2.24046 6.49995 2.52778 6.49995C2.8151 6.49995 3.09065 6.61408 3.29381 6.81725C3.49697 7.02041 3.61111 7.29596 3.61111 7.58328C3.61111 7.8706 3.49697 8.14615 3.29381 8.34931C3.09065 8.55248 2.8151 8.66661 2.52778 8.66661ZM11.4978 1.44439C11.3533 1.0255 10.9489 0.722168 10.4722 0.722168H2.52778C2.05111 0.722168 1.64667 1.0255 1.50222 1.44439L0 5.77772V11.5555C0 11.747 0.076091 11.9307 0.211534 12.0662C0.346977 12.2016 0.530677 12.2777 0.722222 12.2777H1.44444C1.63599 12.2777 1.81969 12.2016 1.95513 12.0662C2.09058 11.9307 2.16667 11.747 2.16667 11.5555V10.8333H10.8333V11.5555C10.8333 11.747 10.9094 11.9307 11.0449 12.0662C11.1803 12.2016 11.364 12.2777 11.5556 12.2777H12.2778C12.4693 12.2777 12.653 12.2016 12.7885 12.0662C12.9239 11.9307 13 11.747 13 11.5555V5.77772L11.4978 1.44439Z" fill="#434852"/>
</svg>
