<svg width="48" height="48" viewBox="0 0 48 48" fill="none" xmlns="http://www.w3.org/2000/svg">
<g id="Group 6">
<circle id="Ellipse 9" cx="24" cy="24" r="23.5" stroke="#242721"/>
<path id="Vector" d="M28 16C28 14.9 28.9 14 30 14C31.1 14 32 14.9 32 16C32 17.1 31.1 18 30 18C28.9 18 28 17.1 28 16ZM32 34V28H34.5L32 20.4C31.7 19.6 31 19 30.1 19H30C29.1 19 28.4 19.6 28.1 20.4L27.2 23C28.3 23.6 29 24.7 29 26.1V34.1H32M24.5 23.5C25.3 23.5 26 22.8 26 22C26 21.2 25.3 20.5 24.5 20.5C23.7 20.5 23 21.2 23 22C23 22.8 23.7 23.5 24.5 23.5ZM17.5 18C18.6 18 19.5 17.1 19.5 16C19.5 14.9 18.6 14 17.5 14C16.4 14 15.5 14.9 15.5 16C15.5 17.1 16.4 18 17.5 18ZM19.5 34V27H21V21C21 19.9 20.1 19 19 19H16C14.9 19 14 19.9 14 21V27H15.5V34H19.5ZM26 34V30H27V26C27 25.2 26.3 24.5 25.5 24.5H23.5C22.7 24.5 22 25.2 22 26V30H23V34H26Z" fill="#242721"/>
</g>
</svg>
