<svg width="16" height="15" viewBox="0 0 16 15" fill="none" xmlns="http://www.w3.org/2000/svg">
<path d="M5.1875 0H10.8125C13.4009 0 15.5 2.09906 15.5 4.6875V10.3125C15.5 12.9009 13.4009 15 10.8125 15H5.1875C2.59906 15 0.5 12.9009 0.5 10.3125V4.6875C0.5 2.09906 2.59906 0 5.1875 0ZM1.90625 10.3125C1.90625 12.1219 3.37813 13.5938 5.1875 13.5938H10.8125C12.6219 13.5938 14.0938 12.1219 14.0938 10.3125V4.6875C14.0938 2.87813 12.6219 1.40625 10.8125 1.40625H5.1875C3.37813 1.40625 1.90625 2.87813 1.90625 4.6875V10.3125Z" fill="#D4C9B1"/>
<path d="M8 3.75C10.0709 3.75 11.75 5.42906 11.75 7.5C11.75 9.57094 10.0709 11.25 8 11.25C5.92906 11.25 4.25 9.57094 4.25 7.5C4.25 5.42906 5.92906 3.75 8 3.75ZM8 9.84375C9.29188 9.84375 10.3438 8.79188 10.3438 7.5C10.3438 6.20719 9.29188 5.15625 8 5.15625C6.70813 5.15625 5.65625 6.20719 5.65625 7.5C5.65625 8.79188 6.70813 9.84375 8 9.84375Z" fill="#D4C9B1"/>
<path d="M3.96875 3.96844C3.69278 3.96844 3.46906 3.74472 3.46906 3.46875C3.46906 3.19278 3.69278 2.96906 3.96875 2.96906C4.24472 2.96906 4.46844 3.19278 4.46844 3.46875C4.46844 3.74472 4.24472 3.96844 3.96875 3.96844Z" fill="#D4C9B1"/>
</svg>
