<svg width="48" height="48" viewBox="0 0 48 48" fill="none" xmlns="http://www.w3.org/2000/svg">
<g id="Group 5">
<circle id="Ellipse 9" cx="24" cy="24" r="23.5" stroke="#242721"/>
<path id="Vector" d="M32 32C32.2652 32 32.5196 32.1054 32.7071 32.2929C32.8946 32.4804 33 32.7348 33 33C33 33.2652 32.8946 33.5196 32.7071 33.7071C32.5196 33.8946 32.2652 34 32 34C31.7348 34 31.4804 33.8946 31.2929 33.7071C31.1054 33.5196 31 33.2652 31 33C31 32.7348 31.1054 32.4804 31.2929 32.2929C31.4804 32.1054 31.7348 32 32 32ZM28 32C28.2652 32 28.5196 32.1054 28.7071 32.2929C28.8946 32.4804 29 32.7348 29 33C29 33.2652 28.8946 33.5196 28.7071 33.7071C28.5196 33.8946 28.2652 34 28 34C27.7348 34 27.4804 33.8946 27.2929 33.7071C27.1054 33.5196 27 33.2652 27 33C27 32.7348 27.1054 32.4804 27.2929 32.2929C27.4804 32.1054 27.7348 32 28 32ZM24 32C24.2652 32 24.5196 32.1054 24.7071 32.2929C24.8946 32.4804 25 32.7348 25 33C25 33.2652 24.8946 33.5196 24.7071 33.7071C24.5196 33.8946 24.2652 34 24 34C23.7348 34 23.4804 33.8946 23.2929 33.7071C23.1054 33.5196 23 33.2652 23 33C23 32.7348 23.1054 32.4804 23.2929 32.2929C23.4804 32.1054 23.7348 32 24 32ZM20 32C20.2652 32 20.5196 32.1054 20.7071 32.2929C20.8946 32.4804 21 32.7348 21 33C21 33.2652 20.8946 33.5196 20.7071 33.7071C20.5196 33.8946 20.2652 34 20 34C19.7348 34 19.4804 33.8946 19.2929 33.7071C19.1054 33.5196 19 33.2652 19 33C19 32.7348 19.1054 32.4804 19.2929 32.2929C19.4804 32.1054 19.7348 32 20 32ZM16 32C16.2652 32 16.5196 32.1054 16.7071 32.2929C16.8946 32.4804 17 32.7348 17 33C17 33.2652 16.8946 33.5196 16.7071 33.7071C16.5196 33.8946 16.2652 34 16 34C15.7348 34 15.4804 33.8946 15.2929 33.7071C15.1054 33.5196 15 33.2652 15 33C15 32.7348 15.1054 32.4804 15.2929 32.2929C15.4804 32.1054 15.7348 32 16 32ZM18 29C18.2652 29 18.5196 29.1054 18.7071 29.2929C18.8946 29.4804 19 29.7348 19 30C19 30.2652 18.8946 30.5196 18.7071 30.7071C18.5196 30.8946 18.2652 31 18 31C17.7348 31 17.4804 30.8946 17.2929 30.7071C17.1054 30.5196 17 30.2652 17 30C17 29.7348 17.1054 29.4804 17.2929 29.2929C17.4804 29.1054 17.7348 29 18 29ZM22 29C22.2652 29 22.5196 29.1054 22.7071 29.2929C22.8946 29.4804 23 29.7348 23 30C23 30.2652 22.8946 30.5196 22.7071 30.7071C22.5196 30.8946 22.2652 31 22 31C21.7348 31 21.4804 30.8946 21.2929 30.7071C21.1054 30.5196 21 30.2652 21 30C21 29.7348 21.1054 29.4804 21.2929 29.2929C21.4804 29.1054 21.7348 29 22 29ZM26 29C26.2652 29 26.5196 29.1054 26.7071 29.2929C26.8946 29.4804 27 29.7348 27 30C27 30.2652 26.8946 30.5196 26.7071 30.7071C26.5196 30.8946 26.2652 31 26 31C25.7348 31 25.4804 30.8946 25.2929 30.7071C25.1054 30.5196 25 30.2652 25 30C25 29.7348 25.1054 29.4804 25.2929 29.2929C25.4804 29.1054 25.7348 29 26 29ZM30 29C30.2652 29 30.5196 29.1054 30.7071 29.2929C30.8946 29.4804 31 29.7348 31 30C31 30.2652 30.8946 30.5196 30.7071 30.7071C30.5196 30.8946 30.2652 31 30 31C29.7348 31 29.4804 30.8946 29.2929 30.7071C29.1054 30.5196 29 30.2652 29 30C29 29.7348 29.1054 29.4804 29.2929 29.2929C29.4804 29.1054 29.7348 29 30 29ZM20 26C20.2652 26 20.5196 26.1054 20.7071 26.2929C20.8946 26.4804 21 26.7348 21 27C21 27.2652 20.8946 27.5196 20.7071 27.7071C20.5196 27.8946 20.2652 28 20 28C19.7348 28 19.4804 27.8946 19.2929 27.7071C19.1054 27.5196 19 27.2652 19 27C19 26.7348 19.1054 26.4804 19.2929 26.2929C19.4804 26.1054 19.7348 26 20 26ZM24 26C24.2652 26 24.5196 26.1054 24.7071 26.2929C24.8946 26.4804 25 26.7348 25 27C25 27.2652 24.8946 27.5196 24.7071 27.7071C24.5196 27.8946 24.2652 28 24 28C23.7348 28 23.4804 27.8946 23.2929 27.7071C23.1054 27.5196 23 27.2652 23 27C23 26.7348 23.1054 26.4804 23.2929 26.2929C23.4804 26.1054 23.7348 26 24 26ZM28 26C28.2652 26 28.5196 26.1054 28.7071 26.2929C28.8946 26.4804 29 26.7348 29 27C29 27.2652 28.8946 27.5196 28.7071 27.7071C28.5196 27.8946 28.2652 28 28 28C27.7348 28 27.4804 27.8946 27.2929 27.7071C27.1054 27.5196 27 27.2652 27 27C27 26.7348 27.1054 26.4804 27.2929 26.2929C27.4804 26.1054 27.7348 26 28 26ZM31 24H17V22H31V24ZM29.92 21H18.08C18.5 18.5 20.5 16.5 23 16.08V14H25V16.08C27.5 16.5 29.5 18.5 29.92 21Z" fill="#242721"/>
</g>
</svg>
