<svg width="18" height="19" viewBox="0 0 18 19" fill="none" xmlns="http://www.w3.org/2000/svg">
<path id="Vector" d="M2 8.5L3.5 4H14.5L16 8.5M14.5 13.5C14.1022 13.5 13.7206 13.342 13.4393 13.0607C13.158 12.7794 13 12.3978 13 12C13 11.6022 13.158 11.2206 13.4393 10.9393C13.7206 10.658 14.1022 10.5 14.5 10.5C14.8978 10.5 15.2794 10.658 15.5607 10.9393C15.842 11.2206 16 11.6022 16 12C16 12.3978 15.842 12.7794 15.5607 13.0607C15.2794 13.342 14.8978 13.5 14.5 13.5ZM3.5 13.5C3.10218 13.5 2.72064 13.342 2.43934 13.0607C2.15804 12.7794 2 12.3978 2 12C2 11.6022 2.15804 11.2206 2.43934 10.9393C2.72064 10.658 3.10218 10.5 3.5 10.5C3.89782 10.5 4.27936 10.658 4.56066 10.9393C4.84196 11.2206 5 11.6022 5 12C5 12.3978 4.84196 12.7794 4.56066 13.0607C4.27936 13.342 3.89782 13.5 3.5 13.5ZM15.92 3.5C15.72 2.92 15.16 2.5 14.5 2.5H12V0.5H6V2.5H3.5C2.84 2.5 2.28 2.92 2.08 3.5L0 9.5V17.5C0 17.7652 0.105357 18.0196 0.292893 18.2071C0.48043 18.3946 0.734784 18.5 1 18.5H2C2.26522 18.5 2.51957 18.3946 2.70711 18.2071C2.89464 18.0196 3 17.7652 3 17.5V16.5H15V17.5C15 17.7652 15.1054 18.0196 15.2929 18.2071C15.4804 18.3946 15.7348 18.5 16 18.5H17C17.2652 18.5 17.5196 18.3946 17.7071 18.2071C17.8946 18.0196 18 17.7652 18 17.5V9.5L15.92 3.5Z" fill="#434852"/>
</svg>
