<svg width="12" height="15" viewBox="0 0 12 15" fill="none" xmlns="http://www.w3.org/2000/svg">
<path id="Vector" d="M6.00001 0.780029C3.17054 0.780029 0.341064 1.13371 0.341064 3.6095V10.3295C0.341064 10.9861 0.601906 11.6158 1.06621 12.0802C1.53051 12.5445 2.16023 12.8053 2.81685 12.8053L1.7558 13.8663V14.22H3.33323L4.74797 12.8053H7.41475L8.82949 14.22H10.2442V13.8663L9.18317 12.8053C9.83979 12.8053 10.4695 12.5445 10.9338 12.0802C11.3981 11.6158 11.659 10.9861 11.659 10.3295V3.6095C11.659 1.13371 9.12658 0.780029 6.00001 0.780029ZM2.81685 11.3906C2.53545 11.3906 2.26556 11.2788 2.06658 11.0798C1.86759 10.8808 1.7558 10.6109 1.7558 10.3295C1.7558 10.0481 1.86759 9.77821 2.06658 9.57922C2.26556 9.38024 2.53545 9.26845 2.81685 9.26845C3.09826 9.26845 3.36815 9.38024 3.56713 9.57922C3.76612 9.77821 3.87791 10.0481 3.87791 10.3295C3.87791 10.6109 3.76612 10.8808 3.56713 11.0798C3.36815 11.2788 3.09826 11.3906 2.81685 11.3906ZM5.29264 6.43898H1.7558V3.6095H5.29264V6.43898ZM6.70738 6.43898V3.6095H10.2442V6.43898H6.70738ZM9.18317 11.3906C8.90176 11.3906 8.63188 11.2788 8.43289 11.0798C8.23391 10.8808 8.12212 10.6109 8.12212 10.3295C8.12212 10.0481 8.23391 9.77821 8.43289 9.57922C8.63188 9.38024 8.90176 9.26845 9.18317 9.26845C9.46458 9.26845 9.73446 9.38024 9.93345 9.57922C10.1324 9.77821 10.2442 10.0481 10.2442 10.3295C10.2442 10.6109 10.1324 10.8808 9.93345 11.0798C9.73446 11.2788 9.46458 11.3906 9.18317 11.3906Z" fill="#434852"/>
</svg>
