<svg width="9" height="15" viewBox="0 0 9 15" fill="none" xmlns="http://www.w3.org/2000/svg">
<path id="Vector" d="M5.62154 6.74312H9V5.50459H6.49385L5.10923 3.2133C4.90154 2.86927 4.52769 2.63532 4.09846 2.63532C3.97385 2.63532 3.86308 2.65596 3.75231 2.69037L0 3.85321V7.43119H1.24615V4.90596L2.70692 4.45184L0 15H1.24615L3.23308 9.41973L4.84615 11.5596V15H6.09231V10.5894L4.36846 7.4656L4.87385 5.49083M5.53846 2.47706C6.23077 2.47706 6.78462 1.92661 6.78462 1.23853C6.78462 0.550459 6.23077 0 5.53846 0C4.84615 0 4.29231 0.550459 4.29231 1.23853C4.29231 1.92661 4.84615 2.47706 5.53846 2.47706Z" fill="#434852"/>
</svg>
