<svg width="48" height="48" viewBox="0 0 48 48" fill="none" xmlns="http://www.w3.org/2000/svg">
<circle cx="24" cy="24" r="23.5" stroke="#242721"/>
<path d="M23.8 33L27.4 28.2C26.4 27.45 25.15 27 23.8 27C22.45 27 21.2 27.45 20.2 28.2L23.8 33ZM23.8 15C19.75 15 16.01 16.34 13 18.6L14.8 21C17.3 19.12 20.42 18 23.8 18C27.18 18 30.3 19.12 32.8 21L34.6 18.6C31.59 16.34 27.85 15 23.8 15ZM23.8 21C21.1 21 18.61 21.89 16.6 23.4L18.4 25.8C19.9 24.67 21.77 24 23.8 24C25.83 24 27.7 24.67 29.2 25.8L31 23.4C28.99 21.89 26.5 21 23.8 21Z" fill="#242721"/>
</svg>
